<?xml version="1.0" encoding="UTF-8" standalone="no"?>
<svg width="41px" height="40px" viewBox="0 0 41 40" version="1.1" xmlns="http://www.w3.org/2000/svg" xmlns:xlink="http://www.w3.org/1999/xlink">
    <!-- Generator: Sketch 44.1 (41455) - http://www.bohemiancoding.com/sketch -->
    <title>Artboard</title>
    <desc>Created with Sketch.</desc>
    <defs></defs>
    <g stroke="none" stroke-width="1" fill="none" fill-rule="evenodd">
        <g transform="translate(-1051.000000, -459.000000)">
            <g transform="translate(1051.000000, 459.000000)">
                <g transform="translate(0.782095, 1.250000)">
                    <polygon fill="#4990E2" points="10.3987231 4.66869247 9.05453556 6.87227864 30.5395007 6.87227864 29.2658279 4.66869247"></polygon>
                    <polygon fill="#4990E2" points="8.19513695 9.0758648 6.85094939 11.279451 33.0537925 11.279451 31.7448623 9.0758648"></polygon>
                    <polygon fill="#4990E2" points="3.51471993 13.4830371 10.2532864 2.46510631 29.4112646 2.46510631 36.2688247 13.4830371 39.664551 13.4830371 30.8502063 0.261520141 8.81434466 0.261520141 0 13.4830371"></polygon>
                    <path d="M0,33.3153126 C0,34.5316922 0.987206602,35.5188988 2.20358617,35.5188988 L37.4609648,35.5188988 C38.6773444,35.5188988 39.664551,34.5316922 39.664551,33.3153126 L39.664551,13.4830371 L0,13.4830371 L0,33.3153126 Z" fill="#4990E2"></path>
                    <path d="M26.6803799,26.6980273 C26.6803799,27.6513654 26.5428813,28.5726062 26.2678799,29.4617773 C25.9928785,30.3509485 25.5482996,31.1346906 24.9341299,31.8130273 C24.3199602,32.4913641 23.504135,33.032192 22.4866299,33.4355273 C21.4691248,33.8388627 20.2178873,34.0405273 18.7328799,34.0405273 L15.6253799,34.0405273 C15.1487108,34.0405273 14.7407983,33.8801123 14.4016299,33.5592773 C14.0624615,33.2384424 13.8928799,32.848863 13.8928799,32.3905273 L13.8928799,16.2755273 C13.8928799,15.8355251 14.0624615,15.450529 14.4016299,15.1205273 C14.7407983,14.7905257 15.1487108,14.6255273 15.6253799,14.6255273 L18.7328799,14.6255273 C20.2178873,14.6255273 21.4645415,14.8226087 22.4728799,15.2167773 C23.4812183,15.610946 24.2970434,16.1334408 24.9203799,16.7842773 C25.5437163,17.4351139 25.9928785,18.1913564 26.2678799,19.0530273 C26.5428813,19.9146983 26.6803799,20.8130227 26.6803799,21.7480273 L26.6803799,26.6980273 Z M23.6553799,21.7480273 C23.6553799,21.1430243 23.577464,20.57928 23.4216299,20.0567773 C23.2657958,19.5342747 23.0091317,19.0805293 22.6516299,18.6955273 C22.2941281,18.3105254 21.8357994,18.0080284 21.2766299,17.7880273 C20.7174604,17.5680262 20.025384,17.4580273 19.2003799,17.4580273 L16.9178799,17.4580273 L16.9178799,31.2355273 L19.2003799,31.2355273 C20.025384,31.2355273 20.7220437,31.1163619 21.2903799,30.8780273 C21.8587161,30.6396928 22.3170448,30.3142794 22.6653799,29.9017773 C23.013715,29.4892753 23.2657958,29.0080301 23.4216299,28.4580273 C23.577464,27.9080246 23.6553799,27.3213638 23.6553799,26.6980273 L23.6553799,21.7480273 Z" fill="#FFFFFF"></path>
                </g>
            </g>
        </g>
    </g>
</svg>