<?xml version="1.0" encoding="UTF-8" standalone="no"?>
<svg width="41px" height="41px" viewBox="0 0 41 41" version="1.1" xmlns="http://www.w3.org/2000/svg" xmlns:xlink="http://www.w3.org/1999/xlink">
    <!-- Generator: Sketch 43.2 (39069) - http://www.bohemiancoding.com/sketch -->
    <title>maintained-library-icon</title>
    <desc>Created with Sketch.</desc>
    <defs></defs>
    <g stroke="none" stroke-width="1" fill="none" fill-rule="evenodd">
        <g transform="translate(-1.000000, 0.000000)" fill="#3C3C3C">
            <g transform="translate(0.849408, 0.000000)">
                <g transform="translate(2.157227, 4.350586)">
                    <polygon points="9.42817563 4.23294784 8.20944557 6.23086597 27.6891473 6.23086597 26.5343506 4.23294784"></polygon>
                    <polygon points="7.4302575 8.22878409 6.21152745 10.2267022 29.9687719 10.2267022 28.7820085 8.22878409"></polygon>
                    <polygon points="3.18667941 12.2246203 9.29631303 2.23502972 26.6662132 2.23502972 32.8837344 12.2246203 35.9625262 12.2246203 27.9708537 0.237111594 7.99167249 0.237111594 0 12.2246203"></polygon>
                    <path d="M0,30.2058835 C0,31.3087343 0.895067319,32.2038016 1.99791812,32.2038016 L33.9646081,32.2038016 C35.0674589,32.2038016 35.9625262,31.3087343 35.9625262,30.2058835 L35.9625262,12.2246203 L0,12.2246203 L0,30.2058835 Z M25.9729356,20.2162928 L9.98959062,20.2162928 L9.98959062,18.2183747 L25.9729356,18.2183747 L25.9729356,20.2162928 L25.9729356,20.2162928 Z"></path>
                </g>
            </g>
        </g>
    </g>
</svg>