<?xml version="1.0" encoding="UTF-8" standalone="no"?>
<svg width="16px" height="12px" viewBox="0 0 16 12" version="1.1" xmlns="http://www.w3.org/2000/svg" xmlns:xlink="http://www.w3.org/1999/xlink">
    <!-- Generator: Sketch 44.1 (41455) - http://www.bohemiancoding.com/sketch -->
    <title>online</title>
    <desc>Created with Sketch.</desc>
    <defs></defs>
    <g stroke="none" stroke-width="1" fill="none" fill-rule="evenodd">
        <g transform="translate(-39.000000, -28.000000)" fill="#5D5D5D">
            <g transform="translate(22.562658, 18.981289)">
                <g transform="translate(16.470317, 9.145639)">
                    <g>
                        <path d="M7.63453257,11.4957253 L7.0351046,10.8968988 C6.94954564,10.8127289 6.90865444,10.6932251 6.92473527,10.5743463 C6.9408161,10.4554676 7.01199156,10.3510927 7.11684478,10.2926284 C7.60752664,10.0322862 8.19557433,10.0322862 8.68625619,10.2926284 C8.79110941,10.3510927 8.86228487,10.4554676 8.8783657,10.5743463 C8.89444652,10.6932251 8.85355532,10.8127289 8.76799636,10.8968988 L8.1685684,11.4957253 C8.02024242,11.640968 7.78285855,11.640968 7.63453257,11.4957253 L7.63453257,11.4957253 Z"></path>
                        <path d="M10.1902755,9.4597151 C9.91167704,9.72933846 9.48571447,9.77637129 9.15489987,9.57403653 C8.38041299,9.12991334 7.42813732,9.12991334 6.65365044,9.57403653 C6.32283584,9.77637129 5.89687327,9.72933846 5.61827486,9.4597151 L5.61827486,9.4597151 C5.43638934,9.28127418 5.34688559,9.02910356 5.37562149,8.77605601 C5.4043574,8.52300847 5.54813154,8.2972756 5.76540718,8.16407223 C7.08497279,7.37891645 8.72902686,7.37891645 10.0485925,8.16407223 C10.2658681,8.2972756 10.4096423,8.52300847 10.4383782,8.77605601 C10.4671141,9.02910356 10.3776103,9.28127418 10.1957248,9.4597151 L10.1902755,9.4597151 Z"></path>
                        <path d="M11.9940087,7.65234774 C11.7053336,7.95315461 11.2370143,7.99058257 10.9041397,7.73944978 C9.11766569,6.39752771 6.65818855,6.39752771 4.87171457,7.73944978 C4.53883998,7.99058257 4.07052061,7.95315461 3.78184554,7.65234774 L3.78184554,7.65234774 C3.60990964,7.48185583 3.52070491,7.24508639 3.53744442,7.00365212 C3.55418394,6.76221786 3.67521224,6.5399954 3.86903506,6.39481201 C6.24373459,4.62009961 9.50487293,4.62009961 11.8795725,6.39481201 C12.0733953,6.5399954 12.1944236,6.76221786 12.2111631,7.00365212 C12.2279026,7.24508639 12.1386979,7.48185583 11.966762,7.65234774 L11.9940087,7.65234774 Z"></path>
                        <path d="M13.7813939,5.87219977 C13.4728015,6.17493384 12.9844397,6.19378879 12.6533795,5.91575079 C9.88717531,3.6676739 5.921375,3.6676739 3.15517085,5.91575079 C2.82411059,6.19378879 2.33574881,6.17493384 2.0271564,5.87219977 L2.0271564,5.87219977 C1.86162813,5.70945763 1.77209581,5.48476773 1.780385,5.25290336 C1.78867419,5.02103899 1.89402333,4.80330216 2.07075116,4.65277119 C5.46154079,1.87160301 10.3470095,1.87160301 13.7377992,4.65277119 C13.914527,4.80330216 14.0198761,5.02103899 14.0281653,5.25290336 C14.0364545,5.48476773 13.9469222,5.70945763 13.7813939,5.87219977 L13.7813939,5.87219977 Z"></path>
                        <path d="M15.5306337,4.09205179 C15.2209777,4.39903892 14.7267852,4.41565371 14.3971699,4.13015894 C10.642715,0.927783286 5.11410961,0.930092257 1.36233629,4.13560281 C1.03861018,4.39342111 0.574545899,4.37487716 0.272467258,4.09205179 L0.272467258,4.09205179 C0.104761088,3.93462629 0.00964526552,3.7149545 0.00964526552,3.48505944 C0.00964526552,3.25516438 0.104761088,3.0354926 0.272467258,2.87806709 C4.65890949,-0.890824013 11.1441915,-0.890824013 15.5306337,2.87806709 C15.6983399,3.0354926 15.7934557,3.25516438 15.7934557,3.48505944 C15.7934557,3.7149545 15.6983399,3.93462629 15.5306337,4.09205179 L15.5306337,4.09205179 Z"></path>
                    </g>
                </g>
            </g>
        </g>
    </g>
</svg>