<?xml version="1.0" encoding="UTF-8" standalone="no"?>
<svg width="35px" height="36px" viewBox="0 0 35 36" version="1.1" xmlns="http://www.w3.org/2000/svg" xmlns:xlink="http://www.w3.org/1999/xlink">
    <!-- Generator: Sketch 46.2 (44496) - http://www.bohemiancoding.com/sketch -->
    <title>3d-icon</title>
    <desc>Created with Sketch.</desc>
    <defs></defs>
    <g stroke="none" stroke-width="1" fill="none" fill-rule="evenodd">
        <g transform="translate(-18.000000, -4.000000)">
            <g transform="translate(15.000000, 2.000000)">
                <rect fill="#8C8C8C" x="3" y="2.66187679" width="35" height="35" rx="4.2"></rect>
                <path d="M18.106,13.7183768 C17.4853302,14.5023807 16.8646698,15.274123 16.244,16.0336268 C15.6233302,16.7931306 15.0026698,17.5648729 14.382,18.3488768 C15.05167,18.4142104 15.6682472,18.5693756 16.23175,18.8143768 C16.7952528,19.059378 17.2770813,19.3901247 17.67725,19.8066268 C18.0774187,20.2231289 18.3918322,20.7172073 18.6205,21.2888768 C18.8491678,21.8605463 18.9635,22.4975399 18.9635,23.1998768 C18.9635,23.8532134 18.8573344,24.5187901 18.645,25.1966268 C18.4326656,25.8744635 18.1019189,26.4869574 17.65275,27.0341268 C17.2035811,27.5812962 16.6319201,28.0304584 15.93775,28.3816268 C15.2435799,28.7327952 14.4065049,28.9083768 13.4265,28.9083768 C13.148832,28.9083768 12.7405027,28.883877 12.2015,28.8348768 C11.6624973,28.7858765 11.1194194,28.6878775 10.57225,28.5408768 C10.0250806,28.3938761 9.54733538,28.1856281 9.13900001,27.9161268 C8.73066463,27.6466254 8.52650001,27.291379 8.52650001,26.8503768 C8.52650001,26.5237085 8.64491549,26.237878 8.88175001,25.9928768 C9.11858452,25.7478756 9.41666488,25.6253768 9.77600001,25.6253768 C9.9883344,25.6253768 10.2047489,25.6743763 10.42525,25.7723768 C10.6457511,25.8703773 10.8866654,25.9765429 11.148,26.0908768 C11.4093346,26.2052107 11.6951651,26.3113763 12.0055,26.4093768 C12.3158349,26.5073773 12.6751646,26.5563768 13.0835,26.5563768 C13.6878364,26.5563768 14.1982479,26.4583778 14.61475,26.2623768 C15.0312521,26.0663758 15.3619988,25.8132117 15.607,25.5028768 C15.8520012,25.1925419 16.0275828,24.845462 16.13375,24.4616268 C16.2399172,24.0777915 16.293,23.6980453 16.293,23.3223768 C16.293,22.3587053 16.0030862,21.6686289 15.42325,21.2521268 C14.8434138,20.8356247 14.1125044,20.6273768 13.2305,20.6273768 C13.0508324,20.6273768 12.9079172,20.6396267 12.80175,20.6641268 C12.6955828,20.6886269 12.5935005,20.7212932 12.4955,20.7621268 C12.3974995,20.8029603 12.3035838,20.8356267 12.21375,20.8601268 C12.1239162,20.8846269 12.0055007,20.8968768 11.8585,20.8968768 C11.5318317,20.8968768 11.2582511,20.7784613 11.03775,20.5416268 C10.8172489,20.3047923 10.707,20.0312117 10.707,19.7208768 C10.707,19.6228763 10.7192499,19.5044608 10.74375,19.3656268 C10.7682501,19.2267928 10.7968332,19.1247104 10.8295,19.0593768 L14.8475,13.9878768 L10.168,13.9878768 C9.79233146,13.9878768 9.47791794,13.865378 9.22475001,13.6203768 C8.97158207,13.3753756 8.84500001,13.0813785 8.84500001,12.7383768 C8.84500001,12.4443753 8.97158207,12.1503783 9.22475001,11.8563768 C9.47791794,11.5623753 9.79233146,11.4153768 10.168,11.4153768 L17.0035,11.4153768 C17.3791686,11.4153768 17.7099152,11.5419589 17.99575,11.7951268 C18.2815848,12.0482947 18.4245,12.387208 18.4245,12.8118768 C18.4245,13.1222117 18.3183344,13.4243753 18.106,13.7183768 Z M32.4735,22.1708768 C32.4735,23.0202144 32.3510012,23.8409562 32.106,24.6331268 C31.8609988,25.4252974 31.4649194,26.1235404 30.91775,26.7278768 C30.3705806,27.3322131 29.6437545,27.8140417 28.73725,28.1733768 C27.8307455,28.5327119 26.7160066,28.7123768 25.393,28.7123768 L22.6245,28.7123768 C22.1998312,28.7123768 21.8364182,28.5694615 21.53425,28.2836268 C21.2320818,27.997792 21.081,27.6507122 21.081,27.2423768 L21.081,12.8853768 C21.081,12.4933748 21.2320818,12.1503783 21.53425,11.8563768 C21.8364182,11.5623753 22.1998312,11.4153768 22.6245,11.4153768 L25.393,11.4153768 C26.7160066,11.4153768 27.8266622,11.5909584 28.725,11.9421268 C29.6233378,12.2932952 30.3501639,12.7587906 30.9055,13.3386268 C31.4608361,13.918463 31.8609988,14.5922063 32.106,15.3598768 C32.3510012,16.1275473 32.4735,16.9278726 32.4735,17.7608768 L32.4735,22.1708768 Z M29.7785,17.7608768 C29.7785,17.2218741 29.709084,16.7196291 29.57025,16.2541268 C29.431416,15.7886245 29.2027516,15.3843785 28.88425,15.0413768 C28.5657484,14.6983751 28.1574192,14.4288778 27.65925,14.2328768 C27.1610808,14.0368758 26.5445037,13.9388768 25.8095,13.9388768 L23.776,13.9388768 L23.776,26.2133768 L25.8095,26.2133768 C26.5445037,26.2133768 27.1651641,26.1072112 27.6715,25.8948768 C28.1778359,25.6825424 28.5861651,25.3926286 28.8965,25.0251268 C29.2068349,24.6576249 29.431416,24.2288792 29.57025,23.7388768 C29.709084,23.2488743 29.7785,22.7262129 29.7785,22.1708768 L29.7785,17.7608768 Z" fill="#FFFFFF"></path>
                <rect x="0.5" y="0.161876786" width="40" height="40"></rect>
            </g>
        </g>
    </g>
</svg>