<?xml version="1.0" encoding="UTF-8" standalone="no"?>
<svg width="41px" height="41px" viewBox="0 0 41 41" version="1.1" xmlns="http://www.w3.org/2000/svg" xmlns:xlink="http://www.w3.org/1999/xlink">
    <!-- Generator: Sketch 42 (36781) - http://www.bohemiancoding.com/sketch -->
    <title>Update</title>
    <desc>Created with Sketch.</desc>
    <defs></defs>
    <g stroke="none" stroke-width="1" fill="none" fill-rule="evenodd">
        <g transform="translate(-210.000000, -99.000000)" fill="#3C3C3C">
            <g transform="translate(210.384766, 98.520996)">
                <g transform="translate(5.157227, 6.850586)">
                    <path d="M29.6398437,11.5834905 C29.6851294,12.0924827 29.2839105,12.5225793 28.760031,12.5193543 L19.845149,12.5955599 C19.0466771,12.649009 18.591825,11.6867417 19.1491605,11.0930566 L21.007955,9.11396449 L26.0008137,3.81473998 L27.8878139,1.81661493 C28.4227322,1.25019065 29.4353955,1.61117164 29.4618933,2.38198951"></path>
                    <path d="M1.6358249,14.6968693 C1.12611989,14.6604736 0.703091068,15.0691376 0.715458509,15.592881 L0.794850699,24.5077352 C0.755344925,25.3070183 1.725404,25.7450073 2.3092718,25.1773954 L4.25562204,23.2843441 L9.46690204,18.1997616 L11.4317901,16.2781767 C11.9887925,15.7334544 11.6101931,14.7272453 10.8390301,14.7142042"></path>
                    <path d="M2.25338394,15.9695712 C3.22446463,22.3585442 8.7412148,27.2541504 15.4013951,27.2541504 C22.0615753,27.2541504 27.5783255,22.3585442 28.5494062,15.9695712 L23.6611081,15.9695712 C22.7562894,19.691311 19.4015271,22.4544678 15.4013951,22.4544678 C11.401263,22.4544678 8.04650074,19.691311 7.141682,15.9695712 L2.25338394,15.9695712 Z M2.25338394,11.9393643 C3.22446463,5.55039135 8.7412148,0.654785156 15.4013951,0.654785156 C22.0615753,0.654785156 27.5783255,5.55039135 28.5494062,11.9393643 L23.6611081,11.9393643 C22.7562894,8.21762452 19.4015271,5.45446777 15.4013951,5.45446777 C11.401263,5.45446777 8.04650074,8.21762452 7.141682,11.9393643 L2.25338394,11.9393643 Z"></path>
                </g>
            </g>
        </g>
    </g>
</svg>